# xmcd
#
# Track frame offsets:
#	182
#	15420
#	26657
#	39640
#	52007
#	66767
#	83285
#	99427
#	121732
#	134090
#	155810
#	166075
#	178960
#	193455
#	205802
#	213867
#
# Disc length: 2985 seconds
#
# Revision: 1
# Processed by: cddbd v1.5.1PL0 Copyright (c) Steve Scherf et al.
# Submitted via: audiograbber 1.83.01
#
DISCID=dd0ba710
DTITLE=Philippe Vanden and Jean-Michel Deudon - Hissez haut
DYEAR=1992
DGENRE=Chanson
TTITLE0=Adieu chers camarades
TTITLE1=Le Forban
TTITLE2=La polka
TTITLE3=Le pont de Morlaix
TTITLE4=Jean-François de Nantes
TTITLE5=Brave marin
TTITLE6=Le grand coureur
TTITLE7=Marins de croix
TTITLE8=Le capitaine du navire
TTITLE9=Passant par Paris
TTITLE10=Valparaiso
TTITLE11=Les filles de Lorient
TTITLE12=Chantons pour passer le temps
TTITLE13=Tacoma
TTITLE14=Pique la baleine
TTITLE15=Santiano
EXTD=
EXTT0=
EXTT1=
EXTT2=
EXTT3=
EXTT4=
EXTT5=
EXTT6=
EXTT7=
EXTT8=
EXTT9=
EXTT10=
EXTT11=
EXTT12=
EXTT13=
EXTT14=
EXTT15=
PLAYORDER=
